<?xml version="1.0" encoding="UTF-8" standalone="no"?>
<!DOCTYPE svg PUBLIC "-//W3C//DTD SVG 1.1//EN" "http://www.w3.org/Graphics/SVG/1.1/DTD/svg11.dtd">
<svg width="100%" height="100%" viewBox="0 0 485 127" version="1.1" xmlns="http://www.w3.org/2000/svg" xmlns:xlink="http://www.w3.org/1999/xlink" xml:space="preserve" xmlns:serif="http://www.serif.com/" style="fill-rule:evenodd;clip-rule:evenodd;stroke-linejoin:round;stroke-miterlimit:2;">
    <g transform="matrix(1,0,0,1,-245.948,-64.173)">
        <g transform="matrix(1.08831,0,0,1.08831,220.942,49.3972)">
            <g>
                <path id="back" d="M110.23,28.39C99.83,13.51 79.29,9.1 64.44,18.56L38.36,35.18C31.246,39.648 26.335,46.913 24.84,55.18C23.593,62.082 24.684,69.207 27.94,75.42C25.708,78.805 24.188,82.609 23.47,86.6C21.966,95.042 23.932,103.744 28.92,110.72C39.32,125.6 59.86,130.01 74.71,120.55L100.79,104C107.895,99.523 112.804,92.262 114.31,84C115.552,77.1 114.458,69.978 111.2,63.77C113.43,60.383 114.954,56.58 115.68,52.59C117.18,44.148 115.214,35.447 110.23,28.47" style="fill:rgb(255,62,0);fill-rule:nonzero;"/>
                <path id="front" d="M61.89,112.16C53.5,114.337 44.591,111.032 39.65,103.91C36.652,99.716 35.472,94.484 36.38,89.41C36.528,88.593 36.735,87.787 37,87L37.49,85.5L38.83,86.5C41.91,88.749 45.349,90.46 49,91.56L50,91.85L49.91,92.85C49.814,94.221 50.199,95.583 51,96.7C52.491,98.842 55.174,99.836 57.7,99.18C58.265,99.028 58.805,98.792 59.3,98.48L85.34,81.86C86.633,81.047 87.523,79.724 87.79,78.22C88.059,76.689 87.698,75.112 86.79,73.85C85.299,71.708 82.616,70.714 80.09,71.37C79.524,71.52 78.984,71.756 78.49,72.07L68.49,78.42C66.854,79.457 65.071,80.239 63.2,80.74C54.824,82.904 45.936,79.605 41,72.5C38.011,68.302 36.839,63.072 37.75,58C38.642,53.018 41.596,48.636 45.88,45.94L72,29.32C73.626,28.285 75.399,27.503 77.26,27C85.647,24.821 94.555,28.127 99.49,35.25C102.491,39.442 103.675,44.674 102.77,49.75C102.614,50.572 102.407,51.384 102.15,52.18L101.65,53.68L100.32,52.68C97.234,50.414 93.784,48.69 90.12,47.58L89.12,47.29L89.21,46.29C89.325,44.912 88.95,43.537 88.15,42.41C86.65,40.305 83.99,39.342 81.49,40C80.924,40.15 80.384,40.386 79.89,40.7L53.8,57.29C52.512,58.104 51.623,59.421 51.35,60.92C51.086,62.454 51.446,64.032 52.35,65.3C53.833,67.422 56.489,68.413 59,67.78C59.565,67.626 60.104,67.39 60.6,67.08L70.6,60.74C72.234,59.692 74.023,58.905 75.9,58.41C84.285,56.226 93.194,59.528 98.13,66.65C101.129,70.843 102.312,76.074 101.41,81.15C100.518,86.132 97.564,90.514 93.28,93.21L67.19,109.83C65.551,110.87 63.764,111.656 61.89,112.16" style="fill:white;fill-rule:nonzero;"/>
            </g>
            <g>
                <path id="back1" serif:id="back" d="M110.23,28.39C99.83,13.51 79.29,9.1 64.44,18.56L38.36,35.18C31.246,39.648 26.335,46.913 24.84,55.18C23.593,62.082 24.684,69.207 27.94,75.42C25.708,78.805 24.188,82.609 23.47,86.6C21.966,95.042 23.932,103.744 28.92,110.72C39.32,125.6 59.86,130.01 74.71,120.55L100.79,104C107.895,99.523 112.804,92.262 114.31,84C115.552,77.1 114.458,69.978 111.2,63.77C113.43,60.383 114.954,56.58 115.68,52.59C117.18,44.148 115.214,35.447 110.23,28.47" style="fill:rgb(255,62,0);fill-rule:nonzero;"/>
                <path id="front1" serif:id="front" d="M61.89,112.16C53.5,114.337 44.591,111.032 39.65,103.91C36.652,99.716 35.472,94.484 36.38,89.41C36.528,88.593 36.735,87.787 37,87L37.49,85.5L38.83,86.5C41.91,88.749 45.349,90.46 49,91.56L50,91.85L49.91,92.85C49.814,94.221 50.199,95.583 51,96.7C52.491,98.842 55.174,99.836 57.7,99.18C58.265,99.028 58.805,98.792 59.3,98.48L85.34,81.86C86.633,81.047 87.523,79.724 87.79,78.22C88.059,76.689 87.698,75.112 86.79,73.85C85.299,71.708 82.616,70.714 80.09,71.37C79.524,71.52 78.984,71.756 78.49,72.07L68.49,78.42C66.854,79.457 65.071,80.239 63.2,80.74C54.824,82.904 45.936,79.605 41,72.5C38.011,68.302 36.839,63.072 37.75,58C38.642,53.018 41.596,48.636 45.88,45.94L72,29.32C73.626,28.285 75.399,27.503 77.26,27C85.647,24.821 94.555,28.127 99.49,35.25C102.491,39.442 103.675,44.674 102.77,49.75C102.614,50.572 102.407,51.384 102.15,52.18L101.65,53.68L100.32,52.68C97.234,50.414 93.784,48.69 90.12,47.58L89.12,47.29L89.21,46.29C89.325,44.912 88.95,43.537 88.15,42.41C86.65,40.305 83.99,39.342 81.49,40C80.924,40.15 80.384,40.386 79.89,40.7L53.8,57.29C52.512,58.104 51.623,59.421 51.35,60.92C51.086,62.454 51.446,64.032 52.35,65.3C53.833,67.422 56.489,68.413 59,67.78C59.565,67.626 60.104,67.39 60.6,67.08L70.6,60.74C72.234,59.692 74.023,58.905 75.9,58.41C84.285,56.226 93.194,59.528 98.13,66.65C101.129,70.843 102.312,76.074 101.41,81.15C100.518,86.132 97.564,90.514 93.28,93.21L67.19,109.83C65.551,110.87 63.764,111.656 61.89,112.16" style="fill:white;fill-rule:nonzero;"/>
            </g>
        </g>
        <g transform="matrix(1.4439,0,0,1.4439,151.171,-80.3358)">
            <g>
                <g transform="matrix(71.6586,0,0,71.6586,158.781,172.407)">
                    <path d="M0.766,-0.794C0.756,-0.818 0.717,-0.856 0.676,-0.856C0.67,-0.856 0.664,-0.856 0.659,-0.854C0.631,-0.844 0.522,-0.246 0.522,-0.246C0.515,-0.321 0.457,-0.755 0.44,-0.783C0.432,-0.796 0.418,-0.8 0.398,-0.8C0.322,-0.8 0.32,-0.787 0.312,-0.737C0.286,-0.58 0.2,-0.23 0.201,-0.23C0.201,-0.23 0.125,-0.75 0.109,-0.777C0.099,-0.793 0.076,-0.801 0.051,-0.801C0.019,-0.801 -0.011,-0.789 -0.011,-0.764C-0.011,-0.691 0.081,-0.038 0.107,-0.005C0.115,0.006 0.134,0.01 0.16,0.01C0.208,0.01 0.254,0.005 0.276,-0.021C0.289,-0.037 0.352,-0.322 0.379,-0.44C0.401,-0.301 0.42,-0.024 0.43,-0.011C0.443,0.005 0.469,0.011 0.509,0.011C0.545,0.011 0.58,0.004 0.597,-0.011C0.638,-0.047 0.767,-0.686 0.767,-0.783C0.767,-0.788 0.767,-0.792 0.766,-0.794Z" style="fill:rgb(64,179,255);fill-rule:nonzero;"/>
                </g>
                <g transform="matrix(71.6586,0,0,71.6586,212.167,172.407)">
                    <path d="M0.503,-0.229C0.5,-0.233 0.497,-0.236 0.494,-0.236C0.494,-0.236 0.493,-0.235 0.492,-0.235C0.435,-0.197 0.304,-0.137 0.211,-0.129C0.209,-0.194 0.205,-0.289 0.205,-0.342C0.267,-0.354 0.434,-0.389 0.434,-0.471C0.434,-0.493 0.424,-0.516 0.412,-0.516L0.41,-0.516C0.347,-0.493 0.272,-0.471 0.216,-0.471L0.206,-0.471C0.208,-0.532 0.211,-0.599 0.215,-0.644C0.261,-0.665 0.41,-0.681 0.468,-0.684C0.486,-0.685 0.493,-0.693 0.493,-0.705C0.493,-0.736 0.446,-0.784 0.411,-0.789C0.398,-0.791 0.357,-0.793 0.308,-0.793C0.215,-0.793 0.093,-0.786 0.079,-0.748C0.06,-0.698 0.045,-0.602 0.042,-0.469C0.036,-0.47 0.029,-0.47 0.022,-0.47C0,-0.47 -0.011,-0.466 -0.011,-0.444C-0.011,-0.414 0.003,-0.357 0.043,-0.342C0.045,-0.247 0.052,-0.15 0.074,-0.062C0.08,-0.038 0.158,0.01 0.203,0.01C0.27,0.01 0.409,-0.053 0.5,-0.149C0.51,-0.16 0.513,-0.174 0.513,-0.189C0.513,-0.206 0.508,-0.223 0.503,-0.229Z" style="fill:rgb(64,179,255);fill-rule:nonzero;"/>
                </g>
                <g transform="matrix(71.6586,0,0,71.6586,250.719,172.407)">
                    <path d="M0.503,-0.229C0.5,-0.233 0.497,-0.236 0.494,-0.236C0.494,-0.236 0.493,-0.235 0.492,-0.235C0.435,-0.197 0.304,-0.137 0.211,-0.129C0.209,-0.194 0.205,-0.289 0.205,-0.342C0.267,-0.354 0.434,-0.389 0.434,-0.471C0.434,-0.493 0.424,-0.516 0.412,-0.516L0.41,-0.516C0.347,-0.493 0.272,-0.471 0.216,-0.471L0.206,-0.471C0.208,-0.532 0.211,-0.599 0.215,-0.644C0.261,-0.665 0.41,-0.681 0.468,-0.684C0.486,-0.685 0.493,-0.693 0.493,-0.705C0.493,-0.736 0.446,-0.784 0.411,-0.789C0.398,-0.791 0.357,-0.793 0.308,-0.793C0.215,-0.793 0.093,-0.786 0.079,-0.748C0.06,-0.698 0.045,-0.602 0.042,-0.469C0.036,-0.47 0.029,-0.47 0.022,-0.47C0,-0.47 -0.011,-0.466 -0.011,-0.444C-0.011,-0.414 0.003,-0.357 0.043,-0.342C0.045,-0.247 0.052,-0.15 0.074,-0.062C0.08,-0.038 0.158,0.01 0.203,0.01C0.27,0.01 0.409,-0.053 0.5,-0.149C0.51,-0.16 0.513,-0.174 0.513,-0.189C0.513,-0.206 0.508,-0.223 0.503,-0.229Z" style="fill:rgb(64,179,255);fill-rule:nonzero;"/>
                </g>
                <g transform="matrix(71.6586,0,0,71.6586,289.271,172.407)">
                    <path d="M0.561,-0.749C0.561,-0.78 0.502,-0.808 0.46,-0.808C0.443,-0.808 0.43,-0.802 0.429,-0.79C0.403,-0.509 0.248,-0.393 0.194,-0.371C0.194,-0.487 0.199,-0.602 0.211,-0.717L0.211,-0.725C0.211,-0.775 0.159,-0.817 0.114,-0.817C0.095,-0.817 0.079,-0.812 0.073,-0.795C0.053,-0.739 0.031,-0.576 0.031,-0.412C0.031,-0.298 0.043,-0.124 0.073,-0.014C0.078,0.004 0.1,0.011 0.126,0.011C0.169,0.011 0.208,-0.004 0.208,-0.015C0.201,-0.065 0.198,-0.15 0.196,-0.231C0.21,-0.181 0.262,-0.085 0.31,-0.046C0.369,0.003 0.429,0.015 0.472,0.015C0.532,0.015 0.546,-0.01 0.546,-0.04C0.546,-0.075 0.47,-0.045 0.385,-0.155C0.348,-0.203 0.333,-0.291 0.331,-0.315C0.362,-0.33 0.541,-0.493 0.561,-0.749Z" style="fill:rgb(64,179,255);fill-rule:nonzero;"/>
                </g>
                <g transform="matrix(71.6586,0,0,71.6586,330.403,172.407)">
                    <path d="M0.496,-0.182C0.493,-0.186 0.49,-0.189 0.487,-0.189C0.487,-0.189 0.486,-0.188 0.485,-0.188C0.426,-0.16 0.29,-0.129 0.215,-0.129L0.205,-0.129C0.199,-0.166 0.197,-0.215 0.197,-0.26C0.197,-0.496 0.222,-0.658 0.222,-0.744C0.222,-0.802 0.214,-0.819 0.175,-0.819C0.138,-0.819 0.086,-0.798 0.077,-0.776C0.056,-0.728 0.036,-0.474 0.036,-0.341C0.036,-0.245 0.046,-0.15 0.068,-0.062C0.074,-0.037 0.16,0.009 0.204,0.009C0.285,0.009 0.391,-0.038 0.494,-0.105C0.505,-0.112 0.509,-0.125 0.509,-0.138C0.509,-0.156 0.502,-0.175 0.496,-0.182Z" style="fill:rgb(64,179,255);fill-rule:nonzero;"/>
                </g>
                <g transform="matrix(71.6586,0,0,71.6586,360.5,172.407)">
                    <path d="M0.524,-0.771C0.512,-0.789 0.452,-0.802 0.421,-0.802C0.411,-0.802 0.404,-0.8 0.402,-0.798C0.372,-0.766 0.268,-0.459 0.268,-0.459C0.253,-0.485 0.146,-0.717 0.139,-0.798C0.138,-0.805 0.131,-0.808 0.121,-0.808C0.084,-0.808 -0.002,-0.766 -0.002,-0.736C-0.002,-0.682 0.135,-0.363 0.175,-0.288C0.176,-0.185 0.187,-0.086 0.207,-0.014C0.212,0.005 0.24,0.011 0.269,0.011C0.312,0.011 0.353,-0.003 0.353,-0.015C0.346,-0.062 0.344,-0.118 0.344,-0.176C0.344,-0.211 0.344,-0.247 0.346,-0.284C0.375,-0.36 0.525,-0.718 0.525,-0.766C0.525,-0.768 0.524,-0.77 0.524,-0.771Z" style="fill:rgb(64,179,255);fill-rule:nonzero;"/>
                </g>
            </g>
        </g>
        <g transform="matrix(1.4439,0,0,1.4439,151.171,-80.3358)">
            <g transform="matrix(71.6586,0,0,71.6586,158.781,172.407)">
                <path d="M0.766,-0.794C0.756,-0.818 0.717,-0.856 0.676,-0.856C0.67,-0.856 0.664,-0.856 0.659,-0.854C0.631,-0.844 0.522,-0.246 0.522,-0.246C0.515,-0.321 0.457,-0.755 0.44,-0.783C0.432,-0.796 0.418,-0.8 0.398,-0.8C0.322,-0.8 0.32,-0.787 0.312,-0.737C0.286,-0.58 0.2,-0.23 0.201,-0.23C0.201,-0.23 0.125,-0.75 0.109,-0.777C0.099,-0.793 0.076,-0.801 0.051,-0.801C0.019,-0.801 -0.011,-0.789 -0.011,-0.764C-0.011,-0.691 0.081,-0.038 0.107,-0.005C0.115,0.006 0.134,0.01 0.16,0.01C0.208,0.01 0.254,0.005 0.276,-0.021C0.289,-0.037 0.352,-0.322 0.379,-0.44C0.401,-0.301 0.42,-0.024 0.43,-0.011C0.443,0.005 0.469,0.011 0.509,0.011C0.545,0.011 0.58,0.004 0.597,-0.011C0.638,-0.047 0.767,-0.686 0.767,-0.783C0.767,-0.788 0.767,-0.792 0.766,-0.794Z" style="fill:rgb(64,179,255);fill-rule:nonzero;"/>
            </g>
            <g transform="matrix(71.6586,0,0,71.6586,212.167,172.407)">
                <path d="M0.503,-0.229C0.5,-0.233 0.497,-0.236 0.494,-0.236C0.494,-0.236 0.493,-0.235 0.492,-0.235C0.435,-0.197 0.304,-0.137 0.211,-0.129C0.209,-0.194 0.205,-0.289 0.205,-0.342C0.267,-0.354 0.434,-0.389 0.434,-0.471C0.434,-0.493 0.424,-0.516 0.412,-0.516L0.41,-0.516C0.347,-0.493 0.272,-0.471 0.216,-0.471L0.206,-0.471C0.208,-0.532 0.211,-0.599 0.215,-0.644C0.261,-0.665 0.41,-0.681 0.468,-0.684C0.486,-0.685 0.493,-0.693 0.493,-0.705C0.493,-0.736 0.446,-0.784 0.411,-0.789C0.398,-0.791 0.357,-0.793 0.308,-0.793C0.215,-0.793 0.093,-0.786 0.079,-0.748C0.06,-0.698 0.045,-0.602 0.042,-0.469C0.036,-0.47 0.029,-0.47 0.022,-0.47C0,-0.47 -0.011,-0.466 -0.011,-0.444C-0.011,-0.414 0.003,-0.357 0.043,-0.342C0.045,-0.247 0.052,-0.15 0.074,-0.062C0.08,-0.038 0.158,0.01 0.203,0.01C0.27,0.01 0.409,-0.053 0.5,-0.149C0.51,-0.16 0.513,-0.174 0.513,-0.189C0.513,-0.206 0.508,-0.223 0.503,-0.229Z" style="fill:rgb(64,179,255);fill-rule:nonzero;"/>
            </g>
            <g transform="matrix(71.6586,0,0,71.6586,250.719,172.407)">
                <path d="M0.503,-0.229C0.5,-0.233 0.497,-0.236 0.494,-0.236C0.494,-0.236 0.493,-0.235 0.492,-0.235C0.435,-0.197 0.304,-0.137 0.211,-0.129C0.209,-0.194 0.205,-0.289 0.205,-0.342C0.267,-0.354 0.434,-0.389 0.434,-0.471C0.434,-0.493 0.424,-0.516 0.412,-0.516L0.41,-0.516C0.347,-0.493 0.272,-0.471 0.216,-0.471L0.206,-0.471C0.208,-0.532 0.211,-0.599 0.215,-0.644C0.261,-0.665 0.41,-0.681 0.468,-0.684C0.486,-0.685 0.493,-0.693 0.493,-0.705C0.493,-0.736 0.446,-0.784 0.411,-0.789C0.398,-0.791 0.357,-0.793 0.308,-0.793C0.215,-0.793 0.093,-0.786 0.079,-0.748C0.06,-0.698 0.045,-0.602 0.042,-0.469C0.036,-0.47 0.029,-0.47 0.022,-0.47C0,-0.47 -0.011,-0.466 -0.011,-0.444C-0.011,-0.414 0.003,-0.357 0.043,-0.342C0.045,-0.247 0.052,-0.15 0.074,-0.062C0.08,-0.038 0.158,0.01 0.203,0.01C0.27,0.01 0.409,-0.053 0.5,-0.149C0.51,-0.16 0.513,-0.174 0.513,-0.189C0.513,-0.206 0.508,-0.223 0.503,-0.229Z" style="fill:rgb(64,179,255);fill-rule:nonzero;"/>
            </g>
            <g transform="matrix(71.6586,0,0,71.6586,289.271,172.407)">
                <path d="M0.561,-0.749C0.561,-0.78 0.502,-0.808 0.46,-0.808C0.443,-0.808 0.43,-0.802 0.429,-0.79C0.403,-0.509 0.248,-0.393 0.194,-0.371C0.194,-0.487 0.199,-0.602 0.211,-0.717L0.211,-0.725C0.211,-0.775 0.159,-0.817 0.114,-0.817C0.095,-0.817 0.079,-0.812 0.073,-0.795C0.053,-0.739 0.031,-0.576 0.031,-0.412C0.031,-0.298 0.043,-0.124 0.073,-0.014C0.078,0.004 0.1,0.011 0.126,0.011C0.169,0.011 0.208,-0.004 0.208,-0.015C0.201,-0.065 0.198,-0.15 0.196,-0.231C0.21,-0.181 0.262,-0.085 0.31,-0.046C0.369,0.003 0.429,0.015 0.472,0.015C0.532,0.015 0.546,-0.01 0.546,-0.04C0.546,-0.075 0.47,-0.045 0.385,-0.155C0.348,-0.203 0.333,-0.291 0.331,-0.315C0.362,-0.33 0.541,-0.493 0.561,-0.749Z" style="fill:rgb(64,179,255);fill-rule:nonzero;"/>
            </g>
            <g transform="matrix(71.6586,0,0,71.6586,330.403,172.407)">
                <path d="M0.496,-0.182C0.493,-0.186 0.49,-0.189 0.487,-0.189C0.487,-0.189 0.486,-0.188 0.485,-0.188C0.426,-0.16 0.29,-0.129 0.215,-0.129L0.205,-0.129C0.199,-0.166 0.197,-0.215 0.197,-0.26C0.197,-0.496 0.222,-0.658 0.222,-0.744C0.222,-0.802 0.214,-0.819 0.175,-0.819C0.138,-0.819 0.086,-0.798 0.077,-0.776C0.056,-0.728 0.036,-0.474 0.036,-0.341C0.036,-0.245 0.046,-0.15 0.068,-0.062C0.074,-0.037 0.16,0.009 0.204,0.009C0.285,0.009 0.391,-0.038 0.494,-0.105C0.505,-0.112 0.509,-0.125 0.509,-0.138C0.509,-0.156 0.502,-0.175 0.496,-0.182Z" style="fill:rgb(64,179,255);fill-rule:nonzero;"/>
            </g>
            <g transform="matrix(71.6586,0,0,71.6586,360.5,172.407)">
                <path d="M0.524,-0.771C0.512,-0.789 0.452,-0.802 0.421,-0.802C0.411,-0.802 0.404,-0.8 0.402,-0.798C0.372,-0.766 0.268,-0.459 0.268,-0.459C0.253,-0.485 0.146,-0.717 0.139,-0.798C0.138,-0.805 0.131,-0.808 0.121,-0.808C0.084,-0.808 -0.002,-0.766 -0.002,-0.736C-0.002,-0.682 0.135,-0.363 0.175,-0.288C0.176,-0.185 0.187,-0.086 0.207,-0.014C0.212,0.005 0.24,0.011 0.269,0.011C0.312,0.011 0.353,-0.003 0.353,-0.015C0.346,-0.062 0.344,-0.118 0.344,-0.176C0.344,-0.211 0.344,-0.247 0.346,-0.284C0.375,-0.36 0.525,-0.718 0.525,-0.766C0.525,-0.768 0.524,-0.77 0.524,-0.771Z" style="fill:rgb(64,179,255);fill-rule:nonzero;"/>
            </g>
        </g>
    </g>
</svg>
