<?xml version="1.0" encoding="UTF-8" standalone="no"?>
<!DOCTYPE svg PUBLIC "-//W3C//DTD SVG 1.1//EN" "http://www.w3.org/Graphics/SVG/1.1/DTD/svg11.dtd">
<svg width="100%" height="100%" viewBox="0 0 143 154" version="1.1" xmlns="http://www.w3.org/2000/svg" xmlns:xlink="http://www.w3.org/1999/xlink" xml:space="preserve" xmlns:serif="http://www.serif.com/" style="fill-rule:evenodd;clip-rule:evenodd;stroke-linejoin:round;stroke-miterlimit:2;">
    <g transform="matrix(1,0,0,1,-365.899,-83.6067)">
        <g>
            <g transform="matrix(3.40982,0.00168918,-0.00168918,3.40982,-1207.44,-584.517)">
                <g>
                    <g transform="matrix(36.3821,0,0,36.3821,468.673,233.595)">
                        <path d="M0.766,-0.794C0.756,-0.818 0.717,-0.856 0.676,-0.856C0.67,-0.856 0.664,-0.856 0.659,-0.854C0.631,-0.844 0.522,-0.246 0.522,-0.246C0.515,-0.321 0.457,-0.755 0.44,-0.783C0.432,-0.796 0.418,-0.8 0.398,-0.8C0.322,-0.8 0.32,-0.787 0.312,-0.737C0.286,-0.58 0.2,-0.23 0.201,-0.23C0.201,-0.23 0.125,-0.75 0.109,-0.777C0.099,-0.793 0.076,-0.801 0.051,-0.801C0.019,-0.801 -0.011,-0.789 -0.011,-0.764C-0.011,-0.691 0.081,-0.038 0.107,-0.005C0.115,0.006 0.134,0.01 0.16,0.01C0.208,0.01 0.254,0.005 0.276,-0.021C0.289,-0.037 0.352,-0.322 0.379,-0.44C0.401,-0.301 0.42,-0.024 0.43,-0.011C0.443,0.005 0.469,0.011 0.509,0.011C0.545,0.011 0.58,0.004 0.597,-0.011C0.638,-0.047 0.767,-0.686 0.767,-0.783C0.767,-0.788 0.767,-0.792 0.766,-0.794Z" style="fill:white;fill-rule:nonzero;"/>
                    </g>
                    <path d="M492.371,201.769C492.221,201.824 492.009,201.953 491.829,202.244C491.611,202.596 491.299,203.494 490.962,204.757C490.025,208.268 488.716,214.806 487.834,219.394C487.297,215.337 486.542,210.059 485.996,207.122C485.752,205.809 485.509,204.92 485.369,204.69L485.368,204.688C484.938,203.989 484.226,203.684 483.153,203.684C481.468,203.684 480.623,203.923 480.135,204.344C479.623,204.787 479.417,205.487 479.23,206.651C478.63,210.273 477.15,216.724 476.161,220.943C475.553,216.919 474.629,210.959 474.001,207.624C473.722,206.14 473.46,205.134 473.331,204.916L473.326,204.908C472.834,204.119 471.748,203.648 470.529,203.648C469.638,203.648 468.79,203.88 468.246,204.29C467.755,204.662 467.468,205.169 467.468,205.799C467.468,207.937 469.617,223.667 470.967,230.491C471.21,231.72 471.43,232.667 471.605,233.21C471.72,233.564 471.843,233.796 471.933,233.91C472.134,234.176 472.428,234.39 472.823,234.534C473.246,234.688 473.814,234.763 474.494,234.763C475.629,234.763 476.735,234.683 477.626,234.405C478.333,234.184 478.916,233.838 479.329,233.351L479.334,233.345C479.455,233.196 479.704,232.593 479.967,231.65C480.543,229.582 481.46,225.623 482.241,222.195C482.643,225.853 482.996,229.928 483.264,231.979C483.351,232.646 483.436,233.12 483.506,233.338C483.56,233.508 483.629,233.619 483.68,233.685L483.686,233.694C484.274,234.418 485.403,234.8 487.192,234.8C488.725,234.8 490.2,234.438 490.925,233.799C491.065,233.675 491.244,233.441 491.418,233.083C491.689,232.526 492.021,231.571 492.382,230.335C494.365,223.54 497.383,207.956 497.383,205.108C497.383,204.783 497.338,204.525 497.276,204.379L497.285,204.398C497.063,203.867 496.535,203.169 495.821,202.616C495.096,202.054 494.189,201.647 493.268,201.647C492.951,201.647 492.637,201.668 492.371,201.769ZM496.542,204.707C496.178,203.834 494.759,202.452 493.268,202.452C493.049,202.452 492.831,202.452 492.649,202.525C491.63,202.888 487.665,224.645 487.665,224.645C487.41,221.916 485.3,206.126 484.681,205.108C484.39,204.635 483.881,204.489 483.153,204.489C480.388,204.489 480.315,204.962 480.024,206.781C479.079,212.493 475.95,225.227 475.986,225.227C475.986,225.227 473.221,206.308 472.639,205.326C472.275,204.744 471.438,204.453 470.529,204.453C469.364,204.453 468.273,204.889 468.273,205.799C468.273,208.455 471.62,232.212 472.566,233.413C472.857,233.813 473.548,233.959 474.494,233.959C476.241,233.959 477.914,233.777 478.715,232.831C479.188,232.249 481.48,221.88 482.462,217.587C483.262,222.644 483.954,232.722 484.318,233.195C484.79,233.777 485.736,233.995 487.192,233.995C488.501,233.995 489.775,233.74 490.393,233.195C491.885,231.885 496.578,208.637 496.578,205.108C496.578,204.926 496.578,204.78 496.542,204.707ZM471.934,233.911L471.915,233.886L471.934,233.911ZM492.357,201.775L492.377,201.767L492.357,201.775Z" style="fill:rgb(255,62,0);"/>
                </g>
                <g>
                    <g transform="matrix(36.3821,0,0,36.3821,468.673,233.595)">
                        <path d="M0.766,-0.794C0.756,-0.818 0.717,-0.856 0.676,-0.856C0.67,-0.856 0.664,-0.856 0.659,-0.854C0.631,-0.844 0.522,-0.246 0.522,-0.246C0.515,-0.321 0.457,-0.755 0.44,-0.783C0.432,-0.796 0.418,-0.8 0.398,-0.8C0.322,-0.8 0.32,-0.787 0.312,-0.737C0.286,-0.58 0.2,-0.23 0.201,-0.23C0.201,-0.23 0.125,-0.75 0.109,-0.777C0.099,-0.793 0.076,-0.801 0.051,-0.801C0.019,-0.801 -0.011,-0.789 -0.011,-0.764C-0.011,-0.691 0.081,-0.038 0.107,-0.005C0.115,0.006 0.134,0.01 0.16,0.01C0.208,0.01 0.254,0.005 0.276,-0.021C0.289,-0.037 0.352,-0.322 0.379,-0.44C0.401,-0.301 0.42,-0.024 0.43,-0.011C0.443,0.005 0.469,0.011 0.509,0.011C0.545,0.011 0.58,0.004 0.597,-0.011C0.638,-0.047 0.767,-0.686 0.767,-0.783C0.767,-0.788 0.767,-0.792 0.766,-0.794Z" style="fill:white;fill-rule:nonzero;"/>
                    </g>
                    <path d="M492.371,201.769C492.221,201.824 492.009,201.953 491.829,202.244C491.611,202.596 491.299,203.494 490.962,204.757C490.025,208.268 488.716,214.806 487.834,219.394C487.297,215.337 486.542,210.059 485.996,207.122C485.752,205.809 485.509,204.92 485.369,204.69L485.368,204.688C484.938,203.989 484.226,203.684 483.153,203.684C481.468,203.684 480.623,203.923 480.135,204.344C479.623,204.787 479.417,205.487 479.23,206.651C478.63,210.273 477.15,216.724 476.161,220.943C475.553,216.919 474.629,210.959 474.001,207.624C473.722,206.14 473.46,205.134 473.331,204.916L473.326,204.908C472.834,204.119 471.748,203.648 470.529,203.648C469.638,203.648 468.79,203.88 468.246,204.29C467.755,204.662 467.468,205.169 467.468,205.799C467.468,207.937 469.617,223.667 470.967,230.491C471.21,231.72 471.43,232.667 471.605,233.21C471.72,233.564 471.843,233.796 471.933,233.91C472.134,234.176 472.428,234.39 472.823,234.534C473.246,234.688 473.814,234.763 474.494,234.763C475.629,234.763 476.735,234.683 477.626,234.405C478.333,234.184 478.916,233.838 479.329,233.351L479.334,233.345C479.455,233.196 479.704,232.593 479.967,231.65C480.543,229.582 481.46,225.623 482.241,222.195C482.643,225.853 482.996,229.928 483.264,231.979C483.351,232.646 483.436,233.12 483.506,233.338C483.56,233.508 483.629,233.619 483.68,233.685L483.686,233.694C484.274,234.418 485.403,234.8 487.192,234.8C488.725,234.8 490.2,234.438 490.925,233.799C491.065,233.675 491.244,233.441 491.418,233.083C491.689,232.526 492.021,231.571 492.382,230.335C494.365,223.54 497.383,207.956 497.383,205.108C497.383,204.783 497.338,204.525 497.276,204.379L497.285,204.398C497.063,203.867 496.535,203.169 495.821,202.616C495.096,202.054 494.189,201.647 493.268,201.647C492.951,201.647 492.637,201.668 492.371,201.769ZM496.542,204.707C496.178,203.834 494.759,202.452 493.268,202.452C493.049,202.452 492.831,202.452 492.649,202.525C491.63,202.888 487.665,224.645 487.665,224.645C487.41,221.916 485.3,206.126 484.681,205.108C484.39,204.635 483.881,204.489 483.153,204.489C480.388,204.489 480.315,204.962 480.024,206.781C479.079,212.493 475.95,225.227 475.986,225.227C475.986,225.227 473.221,206.308 472.639,205.326C472.275,204.744 471.438,204.453 470.529,204.453C469.364,204.453 468.273,204.889 468.273,205.799C468.273,208.455 471.62,232.212 472.566,233.413C472.857,233.813 473.548,233.959 474.494,233.959C476.241,233.959 477.914,233.777 478.715,232.831C479.188,232.249 481.48,221.88 482.462,217.587C483.262,222.644 483.954,232.722 484.318,233.195C484.79,233.777 485.736,233.995 487.192,233.995C488.501,233.995 489.775,233.74 490.393,233.195C491.885,231.885 496.578,208.637 496.578,205.108C496.578,204.926 496.578,204.78 496.542,204.707ZM471.934,233.911L471.915,233.886L471.934,233.911ZM492.357,201.775L492.377,201.767L492.357,201.775Z" style="fill:rgb(255,62,0);"/>
                </g>
            </g>
        </g>
    </g>
</svg>
